<svg width="40" height="40" viewBox="0 0 40 40" fill="none" xmlns="http://www.w3.org/2000/svg"><rect x=".5" y=".5" width="39" height="39" rx="4.5" fill="#fff" stroke="#BDBDBD"/><path d="M14.602 23.463c.122-1.011.536-1.577 1.318-2.157 1.118-.786 2.514-.341 2.514-.341v-2.637c.34-.009.679.011 1.015.06v3.393s-1.396-.444-2.514.342c-.78.58-1.196 1.146-1.318 2.157-.004.549.1 1.266.574 1.887a4.65 4.65 0 0 1-.359-.206c-1.045-.701-1.235-1.754-1.23-2.498Zm10.612-10.01c-.769-.843-1.06-1.694-1.165-2.292h.968s-.193 1.567 1.213 3.108l.02.021a5.574 5.574 0 0 1-1.036-.838Zm4.66 2.388v3.325s-1.234-.048-2.147-.28c-1.276-.325-2.096-.824-2.096-.824s-.566-.356-.612-.38v6.866c0 .382-.105 1.337-.424 2.134-.417 1.041-1.06 1.725-1.178 1.865 0 0-.782.924-2.162 1.547-1.244.561-2.336.547-2.662.561 0 0-1.888.075-3.586-1.029a7.126 7.126 0 0 1-1.025-.823l.009.006c1.699 1.104 3.586 1.029 3.586 1.029.327-.014 1.419 0 2.662-.561 1.379-.623 2.162-1.547 2.162-1.547.117-.14.763-.824 1.178-1.866a6.678 6.678 0 0 0 .424-2.133v-6.866c.046.025.612.38.612.38s.82.5 2.096.824c.914.233 2.148.281 2.148.281v-2.606c.422.095.782.12 1.015.097Z" fill="#EE1D52"/><path d="M28.86 15.745v2.604s-1.235-.048-2.148-.28c-1.276-.325-2.096-.824-2.096-.824s-.566-.355-.612-.38v6.867c0 .382-.105 1.337-.424 2.133-.417 1.042-1.06 1.726-1.178 1.866 0 0-.782.924-2.162 1.546-1.243.562-2.335.548-2.662.562 0 0-1.887.075-3.586-1.03l-.009-.005a6.476 6.476 0 0 1-.506-.55 6.516 6.516 0 0 1-.958-1.668c-.134-.388-.416-1.319-.378-2.22.069-1.591.628-2.567.776-2.812a6.685 6.685 0 0 1 1.506-1.764 6.353 6.353 0 0 1 1.79-1.015 6.228 6.228 0 0 1 2.221-.447v2.637s-1.396-.443-2.514.34c-.78.581-1.195 1.147-1.318 2.158-.005.744.186 1.796 1.23 2.499.122.077.241.145.358.205.183.237.405.444.658.612 1.02.645 1.874.69 2.967.271.729-.28 1.277-.912 1.532-1.612.16-.437.157-.877.157-1.332V11.16h2.544c.105.598.396 1.449 1.165 2.291.308.318.655.6 1.034.838.112.116.685.688 1.42 1.04.38.181.78.32 1.193.415Z" fill="#000"/><path d="M11.507 25.779v.002l.063.171-.063-.173ZM16.213 18.775a6.354 6.354 0 0 0-1.79 1.016 6.683 6.683 0 0 0-1.505 1.767c-.148.244-.708 1.22-.776 2.811-.039.902.244 1.833.378 2.22v.003c.085.221.416 1.003.958 1.666.158.192.326.376.506.55a6.953 6.953 0 0 1-1.521-1.367 6.538 6.538 0 0 1-.956-1.663v-.002c-.134-.388-.418-1.319-.378-2.222.068-1.59.628-2.567.776-2.811.39-.668.9-1.266 1.505-1.767a6.344 6.344 0 0 1 1.79-1.016 6.34 6.34 0 0 1 1.262-.356 6.544 6.544 0 0 1 1.975-.028v.752a6.227 6.227 0 0 0-2.224.447Z" fill="#69C9D0"/><path d="M24.05 11.161h-2.543v12.945c0 .455 0 .894-.158 1.332-.257.7-.803 1.332-1.531 1.612-1.094.421-1.948.374-2.968-.271a2.742 2.742 0 0 1-.659-.61c.869.444 1.646.437 2.61.066.727-.28 1.275-.912 1.53-1.612.161-.437.159-.877.159-1.332V10.344h3.512s-.04.322.048.817Zm4.81 3.863v.72a5.694 5.694 0 0 1-1.191-.414c-.735-.352-1.307-.924-1.419-1.04.13.082.265.156.404.223.893.427 1.772.555 2.206.511Z" fill="#69C9D0"/></svg>